<mxfile host="app.diagrams.net" agent="Mozilla/5.0 (Windows NT 10.0; Win64; x64) AppleWebKit/537.36 (KHTML, like Gecko) Chrome/127.0.0.0 Safari/537.36" version="24.7.4">
  <diagram name="PÃ¡gina-1" id="ZTnNcq0NJFbo9KZoL4Nt">
    <mxGraphModel>
      <root>
        <mxCell id="0" />
        <mxCell id="1" parent="0" />
        <mxCell id="2" value="Usuario 1" style="whiteSpace=wrap;strokeWidth=2;" vertex="1" parent="1">
          <mxGeometry y="12" width="82" height="34" as="geometry" />
        </mxCell>
        <mxCell id="3" value="Tema 1" style="whiteSpace=wrap;strokeWidth=2;" vertex="1" parent="1">
          <mxGeometry x="296" y="12" width="67" height="34" as="geometry" />
        </mxCell>
        <mxCell id="4" value="Usuario 2" style="whiteSpace=wrap;strokeWidth=2;" vertex="1" parent="1">
          <mxGeometry y="96" width="82" height="34" as="geometry" />
        </mxCell>
        <mxCell id="5" value="Tema 2" style="whiteSpace=wrap;strokeWidth=2;" vertex="1" parent="1">
          <mxGeometry x="296" y="96" width="67" height="34" as="geometry" />
        </mxCell>
        <mxCell id="6" value="Usuario 3" style="whiteSpace=wrap;strokeWidth=2;" vertex="1" parent="1">
          <mxGeometry y="180" width="82" height="34" as="geometry" />
        </mxCell>
        <mxCell id="7" value="Tema 3" style="whiteSpace=wrap;strokeWidth=2;" vertex="1" parent="1">
          <mxGeometry x="296" y="180" width="67" height="34" as="geometry" />
        </mxCell>
        <mxCell id="8" value="Tema 1" style="whiteSpace=wrap;strokeWidth=2;" vertex="1" parent="1">
          <mxGeometry x="7" y="379" width="67" height="34" as="geometry" />
        </mxCell>
        <mxCell id="9" value="Tema 3" style="whiteSpace=wrap;strokeWidth=2;" vertex="1" parent="1">
          <mxGeometry x="296" y="348" width="67" height="34" as="geometry" />
        </mxCell>
        <mxCell id="10" value="Tema 2" style="whiteSpace=wrap;strokeWidth=2;" vertex="1" parent="1">
          <mxGeometry x="555" y="379" width="67" height="34" as="geometry" />
        </mxCell>
        <mxCell id="11" value="Tema 2" style="whiteSpace=wrap;strokeWidth=2;" vertex="1" parent="1">
          <mxGeometry x="7" y="264" width="67" height="34" as="geometry" />
        </mxCell>
        <mxCell id="12" value="Tema 1" style="whiteSpace=wrap;strokeWidth=2;" vertex="1" parent="1">
          <mxGeometry x="296" y="264" width="67" height="34" as="geometry" />
        </mxCell>
        <mxCell id="13" value="Tema 3" style="whiteSpace=wrap;strokeWidth=2;" vertex="1" parent="1">
          <mxGeometry x="7" y="482" width="67" height="34" as="geometry" />
        </mxCell>
        <mxCell id="14" value="Tema 2" style="whiteSpace=wrap;strokeWidth=2;" vertex="1" parent="1">
          <mxGeometry x="296" y="482" width="67" height="34" as="geometry" />
        </mxCell>
        <mxCell id="15" value="Quiere aprender" style="curved=1;startArrow=none;endArrow=block;exitX=0.99;exitY=0.33;entryX=0;entryY=0.37;" edge="1" parent="1" source="2" target="3">
          <mxGeometry relative="1" as="geometry">
            <Array as="points">
              <mxPoint x="177" y="10" />
            </Array>
          </mxGeometry>
        </mxCell>
        <mxCell id="16" value="Quiere aprender" style="curved=1;startArrow=none;endArrow=block;exitX=0.99;exitY=0.3;entryX=0;entryY=0.36;" edge="1" parent="1" source="4" target="5">
          <mxGeometry relative="1" as="geometry">
            <Array as="points">
              <mxPoint x="177" y="91" />
            </Array>
          </mxGeometry>
        </mxCell>
        <mxCell id="17" value="Quiere aprender" style="curved=1;startArrow=none;endArrow=block;exitX=0.99;exitY=0.3;entryX=0;entryY=0.36;" edge="1" parent="1" source="6" target="7">
          <mxGeometry relative="1" as="geometry">
            <Array as="points">
              <mxPoint x="177" y="175" />
            </Array>
          </mxGeometry>
        </mxCell>
        <mxCell id="18" value="Ofrece clases sobre" style="curved=1;startArrow=none;endArrow=block;exitX=0;exitY=0.64;entryX=0.99;entryY=0.7;" edge="1" parent="1" source="3" target="2">
          <mxGeometry relative="1" as="geometry">
            <Array as="points">
              <mxPoint x="177" y="52" />
            </Array>
          </mxGeometry>
        </mxCell>
        <mxCell id="19" value="Ofrece clases sobre" style="curved=1;startArrow=none;endArrow=block;exitX=0;exitY=0.64;entryX=0.99;entryY=0.7;" edge="1" parent="1" source="5" target="4">
          <mxGeometry relative="1" as="geometry">
            <Array as="points">
              <mxPoint x="177" y="136" />
            </Array>
          </mxGeometry>
        </mxCell>
        <mxCell id="20" value="Ofrece clases sobre" style="curved=1;startArrow=none;endArrow=block;exitX=0;exitY=0.64;entryX=0.99;entryY=0.7;" edge="1" parent="1" source="7" target="6">
          <mxGeometry relative="1" as="geometry">
            <Array as="points">
              <mxPoint x="177" y="220" />
            </Array>
          </mxGeometry>
        </mxCell>
        <mxCell id="21" value="Relacionado con" style="curved=1;startArrow=none;endArrow=block;exitX=1;exitY=0.27;entryX=0;entryY=0.5;" edge="1" parent="1" source="8" target="9">
          <mxGeometry relative="1" as="geometry">
            <Array as="points">
              <mxPoint x="177" y="365" />
            </Array>
          </mxGeometry>
        </mxCell>
        <mxCell id="22" value="Relacionado con" style="curved=1;startArrow=none;endArrow=block;exitX=1;exitY=0.5;entryX=-0.01;entryY=0.23;" edge="1" parent="1" source="9" target="10">
          <mxGeometry relative="1" as="geometry">
            <Array as="points">
              <mxPoint x="471" y="365" />
            </Array>
          </mxGeometry>
        </mxCell>
        <mxCell id="23" value="Relacionado con" style="curved=1;startArrow=none;endArrow=block;exitX=-0.01;exitY=0.75;entryX=1;entryY=0.72;" edge="1" parent="1" source="10" target="8">
          <mxGeometry relative="1" as="geometry">
            <Array as="points">
              <mxPoint x="471" y="427" />
              <mxPoint x="177" y="427" />
            </Array>
          </mxGeometry>
        </mxCell>
        <mxCell id="24" value="Nivel avanzado" style="curved=1;startArrow=none;endArrow=block;exitX=1;exitY=0.34;entryX=0;entryY=0.36;" edge="1" parent="1" source="11" target="12">
          <mxGeometry relative="1" as="geometry">
            <Array as="points">
              <mxPoint x="177" y="259" />
            </Array>
          </mxGeometry>
        </mxCell>
        <mxCell id="25" value="Nivel principiante" style="curved=1;startArrow=none;endArrow=block;exitX=0;exitY=0.64;entryX=1;entryY=0.66;" edge="1" parent="1" source="12" target="11">
          <mxGeometry relative="1" as="geometry">
            <Array as="points">
              <mxPoint x="177" y="304" />
            </Array>
          </mxGeometry>
        </mxCell>
        <mxCell id="26" value="Nivel intermedio" style="curved=1;startArrow=none;endArrow=block;exitX=1;exitY=0.31;entryX=0;entryY=0.33;" edge="1" parent="1" source="13" target="14">
          <mxGeometry relative="1" as="geometry">
            <Array as="points">
              <mxPoint x="177" y="472" />
            </Array>
          </mxGeometry>
        </mxCell>
        <mxCell id="27" value="Nivel intermedio" style="curved=1;startArrow=none;endArrow=block;exitX=0;exitY=0.63;entryX=1;entryY=0.65;" edge="1" parent="1" source="14" target="13">
          <mxGeometry relative="1" as="geometry">
            <Array as="points">
              <mxPoint x="177" y="519" />
            </Array>
          </mxGeometry>
        </mxCell>
      </root>
    </mxGraphModel>
  </diagram>
</mxfile>
